<?xml version="1.0" encoding="utf-8"?>
<!-- Generator: Adobe Illustrator 21.0.2, SVG Export Plug-In . SVG Version: 6.00 Build 0)  -->
<svg version="1.1" id="Capa_1" xmlns="http://www.w3.org/2000/svg" xmlns:xlink="http://www.w3.org/1999/xlink" x="0px" y="0px"
	 viewBox="0 0 422 359" style="enable-background:new 0 0 422 359;" xml:space="preserve">
<style type="text/css">
	.st0{fill:#FFFFFF;}
</style>
<g>
	<path class="st0" d="M341.4,275.7l-65.7-121v-81h65.7V275.7z M246.3,110.5l-32.7,60.2l62.5,115.1h65.3L246.3,110.5z M80.3,275.7
		l65.3-120.3V73.7H80.3V275.7z M178,105.8l-97.7,180h65.3l97.7-180H178z M41.9,42.2h71.5V0.5H16.5C7.4,0.5,0,7.9,0,16.9v323.8
		c0,9.1,7.4,18.2,16.5,18.2h96.9v-41H41.9V42.2z M405.2,0.5h-96.9v41.8h71.5V318h-71.5v41h96.9c9.1,0,16.5-9.2,16.5-18.2V16.9
		C421.7,7.9,414.3,0.5,405.2,0.5z"/>
</g>
</svg>
